<svg xmlns="http://www.w3.org/2000/svg" viewBox="0 0 32 32" role="img" aria-label="apksherlock — Android">
  <defs>
    <linearGradient id="g" x1="4" y1="4" x2="28" y2="28">
      <stop offset="0" stop-color="#00ffff" />
      <stop offset="0.45" stop-color="#9d00ff" />
      <stop offset="1" stop-color="#ff2ced" />
    </linearGradient>
  </defs>
  <rect width="32" height="32" rx="8" fill="#0d0221" />
  <!-- Simple robot mark (site colors; not an official Android trademark asset) -->
  <g fill="url(#g)">
    <path d="M12 9.5 L10 4.5" stroke="url(#g)" stroke-width="2.2" stroke-linecap="round" fill="none" />
    <path d="M20 9.5 L22 4.5" stroke="url(#g)" stroke-width="2.2" stroke-linecap="round" fill="none" />
    <path
      d="M10.5 12.5
         C10.5 8.8 12.8 6 16 6
         C19.2 6 21.5 8.8 21.5 12.5
         L21.5 13.25 L10.5 13.25 Z"
    />
    <!-- Neck gap (background) then torso: square top, rounded bottom corners only -->
    <path
      d="M11 14.55
         H21
         V22.1
         A2.2 2.2 0 0 1 18.8 24.3
         H13.2
         A2.2 2.2 0 0 1 11 22.1
         V14.55
         Z"
    />
    <rect x="6.5" y="15.4" width="3.2" height="6" rx="1.4" />
    <rect x="22.3" y="15.4" width="3.2" height="6" rx="1.4" />
    <rect x="12" y="23.85" width="3" height="5" rx="1.2" />
    <rect x="17" y="23.85" width="3" height="5" rx="1.2" />
  </g>
  <circle cx="13.2" cy="11.2" r="1.35" fill="#0d0221" />
  <circle cx="18.8" cy="11.2" r="1.35" fill="#0d0221" />
</svg>
